/vscmnt/brussel_pixiu_data/_data_brussel/112/vsc11236/PredSimResults/SUBJ07mtu3D/weighted-LRposFixed/expIG/worker_03.mot
version=1
nRows=11
nColumns=50
inDegrees=yes
endheader
                time	         pelvis_tilt	         pelvis_list	     pelvis_rotation	           pelvis_tx	           pelvis_ty	           pelvis_tz	       hip_flexion_r	     hip_adduction_r	      hip_rotation_r	        knee_angle_r	       ankle_angle_r	         mtp_angle_r	       hip_flexion_l	     hip_adduction_l	      hip_rotation_l	        knee_angle_l	       ankle_angle_l	         mtp_angle_l	    lumbar_extension	      lumbar_bending	     lumbar_rotation	 ercspn_r/activation	 intobl_r/activation	 extobl_r/activation	    abd_r/activation	    add_r/activation	hamstrings_r/activation	bifemsh_r/activation	glut_max_r/activation	iliopsoas_r/activation	rect_fem_r/activation	  vasti_r/activation	gastroc_r/activation	 soleus_r/activation	tib_ant_r/activation	 ercspn_l/activation	 intobl_l/activation	 extobl_l/activation	    abd_l/activation	    add_l/activation	hamstrings_l/activation	bifemsh_l/activation	glut_max_l/activation	iliopsoas_l/activation	rect_fem_l/activation	  vasti_l/activation	gastroc_l/activation	 soleus_l/activation	tib_ant_l/activation	
          1.14151732	         -6.85791642	         -4.19117217	         10.19506104	          1.41548148	          0.84228245	         -0.01397928	         32.00696425	         -0.38253791	         -7.90602697	         -3.84197736	          7.46964378	          0.24960455	        -12.85483097	         -4.96122161	          5.20363317	         -7.56287857	          7.99705140	         29.34334965	         -6.00147086	          2.27132536	         -3.57618510	          0.09838211	          0.18733893	          0.02843381	          0.01807288	          0.14926929	          0.06564566	          0.19577739	          0.00999999	          0.08345425	          0.00999999	          0.00999999	          0.01820558	          0.00999999	          0.28026801	          0.04412974	          0.00999999	          0.00999999	          0.03384342	          0.05681402	          0.02843383	          0.13962739	          0.02843381	          0.40520195	          0.00999999	          0.01080836	          0.27454599	          0.26914875	          0.02007042	
          1.15293249	         -6.92702783	         -4.04730431	         10.10692170	          1.43231253	          0.84035840	         -0.01375693	         32.18670793	         -0.24494732	         -7.24160170	         -5.88582180	          7.11133470	          0.24237725	        -12.88460865	         -4.83303945	          4.68764733	         -9.54915523	          7.19718887	         31.12536565	         -5.80776188	          2.74811357	         -3.62644834	          0.08265648	          0.16055506	          0.02388888	          0.01518407	          0.20197644	          0.06040302	          0.16448386	          0.08674865	          0.07011472	          0.00999999	          0.00999999	          0.02388888	          0.01894313	          0.28718336	          0.10359350	          0.00999999	          0.00999999	          0.02843381	          0.10840082	          0.02388890	          0.11730901	          0.02388888	          0.41632837	          0.00999999	          0.01000000	          0.23066190	          0.24887941	          0.01686232	
          1.16434767	         -6.97705098	         -3.90298871	          9.95456884	          1.44943505	          0.83861807	         -0.01349707	         32.14517076	         -0.11814695	         -6.56901429	         -7.76332094	          6.74524100	          0.23303172	        -12.71509322	         -4.68435710	          4.11161332	        -11.97201332	          6.27960203	         32.80346350	         -5.60007905	          3.24549741	         -3.64929932	          0.07890003	          0.13489155	          0.02007042	          0.08565341	          0.19884905	          0.06360037	          0.13819236	          0.10762679	          0.05890741	          0.00999999	          0.00999999	          0.02007042	          0.01591522	          0.33669948	          0.13342677	          0.00999999	          0.00999999	          0.02388888	          0.09904738	          0.02007044	          0.09855806	          0.02007042	          0.40050290	          0.00999999	          0.00999999	          0.19379234	          0.21467036	          0.01416701	
          1.17576284	         -7.01062341	         -3.75407907	          9.74093890	          1.46660373	          0.83724970	         -0.01313524	         31.92359754	          0.03437140	         -5.96349266	         -9.32862810	          6.29170158	          0.21587213	        -12.27072396	         -4.51924192	          3.49029205	        -14.91214090	          5.20665454	         34.22681871	         -5.40308070	          3.74450076	         -3.64637309	          0.08975120	          0.11333016	          0.01686232	          0.13205529	          0.20863272	          0.05512607	          0.11610336	          0.15221703	          0.04949151	          0.00999999	          0.00999999	          0.01686232	          0.01337129	          0.36036668	          0.16696838	          0.00999999	          0.00999999	          0.02007042	          0.10843177	          0.01686233	          0.08280430	          0.01686232	          0.37662207	          0.00999999	          0.00999999	          0.16281611	          0.18035693	          0.01190252	
          1.18717801	         -7.02803478	         -3.60866825	          9.47166958	          1.48359520	          0.83640440	         -0.01267716	         31.62696065	          0.21311659	         -5.43225051	        -10.78769288	          5.96171990	          0.20150414	        -11.50711964	         -4.35384071	          2.82432177	        -18.39809516	          3.98924430	         35.11367204	         -5.23471696	          4.25204173	         -3.61608247	          0.08650743	          0.09521519	          0.01416701	          0.15969876	          0.20231830	          0.04693242	          0.09754512	          0.17304632	          0.04158067	          0.00999999	          0.03337341	          0.01416701	          0.01123399	          0.37320590	          0.19857453	          0.00999999	          0.00999999	          0.01686232	          0.11384999	          0.01416702	          0.06956866	          0.01416701	          0.32728923	          0.00999999	          0.00999999	          0.13679119	          0.15152825	          0.00999999	
          1.19859319	         -7.03053059	         -3.46667928	          9.14895354	          1.50026963	          0.83620747	         -0.01214197	         31.28971456	          0.40638669	         -4.97604148	        -12.17625340	          5.75577718	          0.18649005	        -10.41686566	         -4.19992339	          2.11117650	        -22.39354447	          2.59986844	         35.21072285	         -5.10410771	          4.76530138	         -3.55721311	          0.07267987	          0.07999577	          0.01190252	          0.16721655	          0.17609445	          0.04804304	          0.08195328	          0.16580628	          0.03493431	          0.00999999	          0.12383116	          0.01190252	          0.00999999	          0.38213663	          0.22085055	          0.00999999	          0.00999999	          0.01416701	          0.13253065	          0.01190253	          0.05844864	          0.01190252	          0.27497453	          0.00999999	          0.00999999	          0.11492616	          0.12730761	          0.00999999	
          1.21000836	         -7.02180105	         -3.31577689	          8.77137033	          1.51656687	          0.83677461	         -0.01155969	         30.85283078	          0.60249732	         -4.57582408	        -13.37382158	          5.69210983	          0.17190242	         -9.03373998	         -4.05410761	          1.36547142	        -26.74540231	          0.83074273	         34.54877182	         -5.01385378	          5.26814855	         -3.46862913	          0.06106255	          0.06720905	          0.00999999	          0.16956662	          0.14794709	          0.04899996	          0.06885367	          0.14302433	          0.02935033	          0.00999999	          0.19079204	          0.00999999	          0.00999999	          0.37507677	          0.22155726	          0.00999999	          0.00999999	          0.01190252	          0.14598670	          0.01000000	          0.05492070	          0.00999999	          0.23102194	          0.00999999	          0.00999999	          0.09655608	          0.10695845	          0.00999999	
          1.22142353	         -7.00493329	         -3.14103127	          8.33859524	          1.53247496	          0.83811235	         -0.01096262	         30.26521661	          0.79044658	         -4.18038851	        -14.29205787	          5.79475149	          0.16092723	         -7.41809956	         -3.90758741	          0.61068301	        -31.26406194	         -1.38661821	         33.05887802	         -4.96418896	          5.74402854	         -3.34928097	          0.05130216	          0.05646619	          0.00999999	          0.17487749	          0.12429887	          0.04788511	          0.05784793	          0.12016297	          0.02465890	          0.00999999	          0.20283180	          0.01144761	          0.01150070	          0.35707556	          0.22017157	          0.01229373	          0.00999999	          0.00999999	          0.13544123	          0.01190252	          0.04614205	          0.00999999	          0.19409484	          0.00999999	          0.00999999	          0.08112233	          0.08986196	          0.03202450	
          1.23283870	         -6.98098605	         -2.94223687	          7.86089357	          1.54798058	          0.84008560	         -0.01037769	         29.53854340	          0.96538740	         -3.74864439	        -14.94874566	          6.04473521	          0.15744092	         -5.63633499	         -3.75975489	         -0.12078006	        -35.82626223	         -3.64577832	         30.28571069	         -4.95434577	          6.18936867	         -3.20445154	          0.04310190	          0.04744050	          0.00999999	          0.17575985	          0.10443064	          0.04647592	          0.04860138	          0.10095586	          0.02071736	          0.00999999	          0.22212979	          0.00999999	          0.00999999	          0.33463475	          0.24069712	          0.05562011	          0.02717461	          0.00999999	          0.11379198	          0.00999999	          0.03876659	          0.00999999	          0.16307025	          0.00999999	          0.00999999	          0.06815554	          0.07549820	          0.15678223	
          1.24425388	         -6.95000538	         -2.72032400	          7.34562574	          1.56307664	          0.84248139	         -0.00980494	         28.68923569	          1.12345436	         -3.26465316	        -15.35799065	          6.36657426	          0.16074750	         -3.78237122	         -3.58188551	         -0.79763897	        -40.30740498	         -4.88216836	         26.34417872	         -4.98435559	          6.59004353	         -3.03287462	          0.03621239	          0.03985750	          0.00999999	          0.16258497	          0.08773820	          0.04395653	          0.04083282	          0.08599034	          0.01740585	          0.00999999	          0.21818735	          0.00999999	          0.00999999	          0.30649748	          0.24893058	          0.05794334	          0.05139857	          0.00999999	          0.09560320	          0.00999999	          0.05772095	          0.00999999	          0.13700471	          0.00999999	          0.00999999	          0.05726139	          0.06343039	          0.17734699	
          1.25566905	         -6.91232188	         -2.47374538	          6.79488086	          1.57780802	          0.84520992	         -0.00924807	         27.73996014	          1.25666323	         -2.73000558	        -15.56307645	          6.73789486	          0.17387939	         -1.95069573	         -3.34213102	         -1.44500086	        -44.39266557	         -4.87048462	         22.79893227	         -5.04847711	          6.93630798	         -2.83997378	          0.03042411	          0.03348658	          0.00999999	          0.15226556	          0.07371391	          0.04077242	          0.03430600	          0.07403409	          0.01462366	          0.00999999	          0.19934469	          0.00999999	          0.00999999	          0.27755207	          0.24105819	          0.05582164	          0.04816038	          0.00999999	          0.08032175	          0.00999999	          0.08378481	          0.00999999	          0.11510555	          0.00999999	          0.00999999	          0.04810859	          0.05329152	          0.20866285	
